<svg width="537" height="530" viewBox="0 0 537 530" fill="none" xmlns="http://www.w3.org/2000/svg">
<path d="M11.5 310.5C92.3333 229.5 370 151 464.5 438M532 265C532 408.594 414.027 525 268.5 525C122.973 525 5 408.594 5 265C5 121.406 122.973 5 268.5 5C414.027 5 532 121.406 532 265Z" stroke="white" stroke-width="9"/>
<path d="M270.527 409.12C216.211 430.847 164.697 413.862 145.729 402.654L150.256 394.895C190.993 420.113 237.118 404.81 270.527 400.068V409.12Z" fill="white"/>
<path d="M344.241 358.038L291.865 340.579V332.173L344.241 347.692V358.038Z" fill="white"/>
<path d="M153.489 334.759L96.5865 347.692L94 337.993L153.489 327V334.759Z" fill="white"/>
<path d="M123.366 196.328C124.488 193.62 126.791 189.902 129.961 189.902C132.056 189.902 135.583 192.152 136.895 193.791C138.527 195.831 140.462 196.647 142.832 197.324C144.981 197.938 147.365 199.71 149.578 199.71C150.572 199.71 152.357 200.059 153.13 199.372C154.116 198.496 155.573 197.986 156.7 197.343C158.993 196.033 160.621 194.051 163.107 192.946C164.098 192.506 165.266 191.963 166.057 191.33C168.07 189.72 171.924 192.449 173.762 193.265C174.644 193.657 176.946 193.887 177.482 194.825C177.858 195.482 178.128 196.198 178.835 196.591C179.904 197.185 180.966 197.538 182.048 198.019C185.108 199.379 187.843 201.063 191.274 201.063C192.471 201.063 193.885 199.504 194.92 198.846C196.33 197.949 197.399 197.073 198.189 195.652C199.072 194.062 199.434 191.975 200.989 190.766C201.768 190.16 205.343 190.344 206.307 190.653C210.427 191.978 211.296 196.658 215.025 198.621C217.715 200.036 221.432 201.97 224.421 200.049C226.113 198.96 227.68 197.596 229.419 196.648C231.146 195.706 232.927 194.742 234.304 193.284C234.932 192.619 235.175 190.885 236.183 190.597C237.821 190.129 239.47 190 241.069 190.841C243.4 192.068 244.009 194.975 246.819 194.975" stroke="white" stroke-width="8" stroke-linecap="round" stroke-linejoin="round"/>
<path d="M111.373 198.561C108.869 196.057 104.076 190.544 100.239 190.544C96.5338 190.544 91.1431 192.762 88.5603 195.344C87.2184 196.686 84.9008 197.371 83.5128 198.759C82.2915 199.98 80.0494 200.433 78.4158 200.342C76.5484 200.239 75.0829 198.468 73.7394 197.423C72.5261 196.479 70.2385 194.247 69.5083 192.969C68.808 191.743 66.4853 190.624 65.0546 190.544C62.2386 190.388 60.9195 192.21 58.8194 193.86C55.2277 196.682 52.357 200.788 47.4624 200.788C42.7597 200.788 39.6372 198.975 36.3282 195.666C35.0386 194.376 34.1541 191.984 32.5425 191.089C31.0897 190.281 28.5342 189.831 28.5342 191.88" stroke="white" stroke-width="8" stroke-linecap="round" stroke-linejoin="round"/>
<path d="M251.02 129.639C248.837 127.455 244.356 122.11 240.585 123.786C238.976 124.501 237.082 125.752 235.368 126.133C232.804 126.702 231.917 128.472 229.874 129.639C228.108 130.648 228.581 132.62 226.175 132.62C224.353 132.62 222.531 132.62 220.709 132.62C217.127 132.62 214.79 128.688 212.511 126.409C211.6 125.498 210.691 123.759 209.281 123.676C207.422 123.566 206.08 124.074 204.312 124.173C201.866 124.308 199.705 126.22 197.604 127.154C195.727 127.988 194.746 130.632 192.635 131.102C190.788 131.512 189.845 132.62 187.914 132.62C185.492 132.62 184.984 132.215 183.828 130.135C183.037 128.712 181.985 126.187 180.709 125.166C178.77 123.615 175.968 124.76 173.311 124.642C172.735 124.616 164.709 121.137 164.56 123.676C164.421 126.035 162.789 127.743 161.827 129.859C160.479 132.825 154.965 131.626 152.137 131.626C147.672 131.626 144.713 129.516 141.233 126.906C140.157 126.099 138.725 123.267 137.23 123.179C135.171 123.058 134.114 123.967 132.261 124.173C130.44 124.375 128.871 126.09 127.541 127.154C126.8 127.746 126.393 128.897 125.691 129.528C125.193 129.976 124.204 129.625 123.566 130.135C121.163 132.057 116.542 132.257 113.489 131.24C109.134 129.788 105.695 127.363 102.944 123.924C102.328 123.154 98.4355 123.635 97.3679 123.676C94.8961 123.771 94 126.649 94 128.645" stroke="white" stroke-width="8" stroke-linecap="round" stroke-linejoin="round"/>
<path d="M317.862 77.2908C314.776 74.8906 311.976 72.1072 309.525 69.0644C309.248 68.72 308.039 67.3745 307.924 68.3466C307.805 69.3624 305.137 71.7096 304.446 72.7083C301.73 76.631 295.969 77.8243 293.017 81.5144C291.571 83.3218 284.951 79.7067 283.355 79.2508C281.649 78.7632 279.104 76.7944 277.889 75.5793C277.03 74.7203 274.294 71.8889 273.141 71.8249C271.168 71.7153 269.155 71.8249 267.178 71.8249C265.03 71.8249 263.924 73.8648 262.596 75.1928C261.014 76.7747 258.233 80.2722 255.998 80.2722C252.535 80.2722 248.225 80.0593 245.812 77.0424C245.046 76.0849 242.756 75.4579 241.616 74.8063C240.49 74.1631 239.748 73.3349 238.745 72.4322C236.975 70.8398 232.37 72.4246 230.905 73.8125C229.343 75.2925 227.119 75.9647 225.715 77.2908C222.183 80.6262 219.386 80.2722 214.728 80.2722C213.358 80.2722 210.584 80.3317 210.063 78.5054C209.572 76.789 208.814 75.7851 208.047 74.061C207.21 72.1762 205.979 71.8249 204.017 71.8249C201.506 71.8249 198.868 71.5792 196.398 72.0734C194.362 72.4805 195.04 72.8076 194.245 74.3094C193.521 75.6759 191.744 76.6997 190.656 77.7877C189.002 79.4419 187.375 81.1527 185.687 82.7567C182.013 86.2467 176.241 78.8104 174.479 76.5455C172.708 74.2681 167.314 69.5796 164.072 72.101C162.865 73.0395 161.228 74.4483 160.345 75.5517C159.269 76.8972 156.376 76.2931 154.879 77.2908" stroke="white" stroke-width="8" stroke-linecap="round" stroke-linejoin="round"/>
<path d="M425.021 127.224C420.708 125.54 416.456 123.577 411.636 124.648C406.22 125.852 402.41 130.773 398.105 133.753C391.595 138.26 395.559 132.295 392.737 129.473C389.867 126.603 386.585 124.612 382.253 124.612C378.271 124.612 374.732 124.411 372.132 128.022C369.749 131.331 365.429 132.447 361.395 132.447C356.443 132.447 355.843 129.339 353.705 125.918C352.404 123.836 345.902 124.048 344.201 125.41C342.622 126.673 342.725 129.335 340.138 129.182C339.015 129.116 339.202 128.256 337.744 128.82C335.511 129.682 333.134 131.141 330.67 131.141C329.409 131.141 328.15 132.753 326.752 133.064C324.351 133.598 323.622 131.772 322.363 130.126C321.244 128.663 320.846 127.526 320.041 125.918C319.547 124.93 318.8 125.503 317.937 125.12C316.096 124.301 314.514 122.653 312.387 122.653C309.638 122.653 303.924 126.872 301.976 128.82C299.137 131.659 296.049 133.1 291.819 133.1C289.612 133.1 284.112 131.427 283.367 128.82C282.616 126.191 281.363 122 278.107 122C273.373 122 272.176 126.598 268.313 128.53" stroke="white" stroke-width="8" stroke-linecap="round" stroke-linejoin="round"/>
<path d="M431.41 80.3911C427.17 81.0694 423.263 82.7424 422.232 78.1057C421.558 75.0728 420.134 73.1806 418.025 71.5399C416.11 70.0513 412.431 70.2899 410.516 71.9027C409.491 72.7657 408.855 72.8538 407.904 73.8615C406.909 74.9148 404.815 75.4786 404.131 76.4733C401.883 79.7438 394.941 79.0851 391.254 79.0851C386.338 79.0851 387.108 70.5968 381.459 70.5968C374.946 70.5968 370.651 71.6467 366.115 76.1831C363.019 79.2786 357.164 78.5639 353.709 76.8361C349.492 74.7275 346.468 69.4621 341.303 71.7576C340.244 72.2281 339.146 72.0851 338.038 72.7007C337.26 73.1329 336.325 74.4616 335.426 74.5145C332.571 74.6824 331.508 75.2237 331.508 78.4322" stroke="white" stroke-width="8" stroke-linecap="round" stroke-linejoin="round"/>
<path d="M358.356 40.1672C355.348 40.2424 349.838 44.0255 346.929 41.7633C344.767 40.0817 343.413 37.187 341.887 35.0887C340.012 32.51 337.373 31.0828 333.906 32.6583C332.484 33.3048 330.578 34.8514 329.626 36.1044C328.751 37.2562 325.454 40.8202 324.076 40.8202C320.676 40.8202 317.582 42.779 314.608 42.779C309.751 42.779 310.322 37.5313 307.063 35.6691C304.717 34.3284 298.431 36.0999 296.326 37.0476C293.014 38.5379 288.735 38.2737 285.733 40.6751C284.411 41.7327 283.326 43.1578 281.961 44.4477C280.81 45.5347 278.563 43.1475 277.716 42.4888C275.321 40.6255 274.382 38.5295 272.674 36.3946C271.516 34.9473 271.798 34.2907 269.555 34.2907C267.431 34.2907 265.167 34.0638 263.061 34.3269C258.853 34.853 257 39.9462 252.904 40.8565C250.569 41.3754 246.142 43.5965 243.944 41.6182C241.721 39.6168 239.719 37.0198 237.85 34.6171C233.976 29.6363 221.821 34.5626 220.583 39.5143" stroke="white" stroke-width="8" stroke-linecap="round" stroke-linejoin="round"/>
<path d="M204.259 38.8613C202.015 37.9308 199.687 37.0593 198.999 34.6534C198.781 33.8882 195.091 34.2577 194.465 34.2907C190.644 34.4918 187.795 39.9453 185.469 42.2712C183.187 44.5529 178.051 45.0601 175.53 43.5771C174.082 42.7258 169.527 40.5679 169 39.5143" stroke="white" stroke-width="8" stroke-linecap="round" stroke-linejoin="round"/>
<path d="M142.278 77.8316C141.294 77.0859 140.035 76.492 139.434 75.4106C139.054 74.7252 138.103 73.4589 137.436 73.0664C136.98 72.7982 136.521 72.267 136.129 71.8751C135.496 71.2417 135.131 71.952 134.477 71.952C132.4 71.952 131.057 71.9649 129.154 72.7974C127.279 73.618 125.729 74.8432 123.947 75.8333C122.638 76.5605 121.78 77.8405 120.489 78.6002C118.675 79.6671 117.77 79.9068 115.474 79.9068C113.33 79.9068 112.304 80.2879 110.305 79.561C109.164 79.1462 108.057 78.0143 107 77.4858" stroke="white" stroke-width="8" stroke-linecap="round" stroke-linejoin="round"/>
<path d="M423.697 195.622C419.942 193.332 415.807 190.062 410.896 191.641C406.081 193.188 402.941 196.443 399.305 199.351C396.671 201.458 392.339 199.573 389.679 198.243C387.549 197.178 385.695 195.72 384.009 194.034C382.919 192.945 380.403 190.264 378.793 190.179C374.039 189.929 368.391 192.808 366.193 196.983C365.367 198.554 362.362 198.343 360.876 198.343C359.008 198.343 356.907 199.328 354.854 198.696C351.578 197.688 349.506 192.447 346.135 192.447C345.115 192.447 344.243 191.993 343.187 191.993C342.883 191.993 342.19 191.852 342.078 192.245C342.031 192.409 342.051 193.137 342.028 193.102C340.847 191.332 336.279 194.072 335.249 194.614C331.58 196.545 328.857 200.918 323.91 198.444C322.187 197.583 320.8 198.33 319.575 196.756C318.537 195.421 316.949 194.347 316.098 192.901C314.63 190.405 306.705 192.379 304.406 192.447C302.281 192.509 300.632 192.791 299.643 194.967C299.146 196.061 298.981 197.528 298.156 198.444C297.678 198.976 296.497 198.997 295.788 199.351C292.517 200.987 289.376 200.987 286.263 199.603C283.173 198.23 284.016 194.24 280.82 192.548C278.503 191.322 273.6 189.968 271.194 191.893C270.078 192.785 267.968 192.069 266.759 193.581C266.077 194.433 263.894 195.336 264.491 196.529" stroke="white" stroke-width="8" stroke-linecap="round" stroke-linejoin="round"/>
<path d="M437.758 195.622C439.786 190.731 443.637 190.633 448.417 190.633C452.978 190.633 454.91 192.291 457.816 195.521C458.381 196.149 459.521 198.114 460.236 198.318C462.266 198.898 464.429 198.797 466.56 198.797C470.257 198.797 474.306 194.926 477.119 192.901C478.335 192.025 479.622 190.173 481.1 189.751C482.599 189.322 486.557 189.218 487.879 189.952C489.416 190.806 490.09 191.639 491.18 193.001C492.195 194.27 493.243 195.246 494.556 196.428C497.169 198.78 500.304 198.797 503.729 198.797C507.841 198.797 507.714 193.47 510.785 192.447" stroke="white" stroke-width="8" stroke-linecap="round" stroke-linejoin="round"/>
<path d="M396 264.544C398.981 264.544 401.736 264.091 404.845 264.091C406.821 264.091 409.236 266.986 410.943 267.946C415.169 270.323 418.465 271.544 423.568 271.348C426.314 271.242 427.751 269.086 427.751 266.585C427.751 264.341 431.982 263.756 433.42 262.957C436.871 261.04 445.894 261.846 445.894 266.812" stroke="white" stroke-width="8" stroke-linecap="round" stroke-linejoin="round"/>
<path d="M464 265.35C466.781 261.791 470.832 261.721 475.113 261.721C477.228 261.721 479.135 261.584 481.135 262.276C483.531 263.105 484.347 265.74 485.999 267.391C487.477 268.87 489.09 270.793 491.442 270.793C493.411 270.793 495.33 268.694 496.658 267.366C498.05 265.974 498.992 264.014 500.513 262.83C501.888 261.761 503.918 260.356 504.822 259" stroke="white" stroke-width="8" stroke-linecap="round" stroke-linejoin="round"/>
<path d="M493.913 382.544L493.911 382.538C492.753 379.461 491.027 377.765 489.181 376.85C487.28 375.909 485.012 375.682 482.658 375.996C480.307 376.309 478.019 377.145 476.229 378.141C475.337 378.637 474.612 379.148 474.084 379.614C473.525 380.109 473.321 380.435 473.28 380.526L470.944 385.716L468.706 380.494C468.71 380.502 468.711 380.506 468.711 380.506C468.706 380.509 468.576 380.297 468.122 379.909C467.645 379.502 466.967 379.032 466.118 378.563C464.416 377.622 462.212 376.787 459.941 376.442C457.663 376.096 455.482 376.266 453.666 377.126C451.915 377.955 450.258 379.537 449.144 382.517L493.913 382.544ZM493.913 382.544C495.009 385.439 494.369 389.48 492.089 394.427C489.856 399.274 486.285 404.478 482.383 409.369C476.468 416.781 469.979 423.242 466.763 426.323M493.913 382.544L466.763 426.323M466.763 426.323C464.363 423.182 459.85 416.883 455.878 409.651C453.225 404.82 450.868 399.67 449.527 394.837C448.172 389.952 447.948 385.722 449.144 382.518L466.763 426.323Z" fill="#279DA4" stroke="white" stroke-width="5"/>
<path d="M32.634 224.478C32.6424 227.836 34.7419 230.613 37.2945 230.698C39.7776 230.6 41.9093 227.904 41.8314 224.363C41.7984 220.385 39.9234 215.423 37.1049 210.188C34.2669 215.461 32.5315 220.317 32.634 224.478" fill="#279DA4"/>
<path d="M48.634 222.478C48.6424 225.836 50.7419 228.613 53.2945 228.698C55.7776 228.6 57.9093 225.904 57.8314 222.363C57.7984 218.385 55.9234 213.423 53.1049 208.188C50.2669 213.461 48.5315 218.317 48.634 222.478" fill="#279DA4"/>
<path d="M95.634 218.478C95.6424 221.836 97.7419 224.613 100.295 224.698C102.778 224.6 104.909 221.904 104.831 218.363C104.798 214.385 102.923 209.423 100.105 204.188C97.2669 209.461 95.5315 214.317 95.634 218.478" fill="#279DA4"/>
<path d="M72.634 224.478C72.6424 227.836 74.7419 230.613 77.2945 230.698C79.7776 230.6 81.9093 227.904 81.8314 224.363C81.7984 220.385 79.9234 215.423 77.1049 210.188C74.2669 215.461 72.5315 220.317 72.634 224.478" fill="#279DA4"/>
<path d="M125.943 219.007C125.524 221.728 127.129 224.285 129.498 224.728C131.826 225.011 134.156 223.138 134.533 220.257C135.007 217.029 133.889 212.734 131.926 208.08C128.61 211.938 126.376 215.619 125.943 219.007" fill="#279DA4"/>
<path d="M141.114 219.723C140.696 222.445 142.301 225.002 144.67 225.444C146.997 225.728 149.327 223.855 149.704 220.974C150.178 217.746 149.06 213.451 147.097 208.796C143.782 212.655 141.547 216.336 141.114 219.723" fill="#279DA4"/>
<path d="M184.943 220.007C184.524 222.728 186.129 225.285 188.498 225.728C190.826 226.011 193.156 224.138 193.533 221.257C194.007 218.029 192.889 213.734 190.926 209.08C187.61 212.938 185.376 216.619 184.943 220.007" fill="#279DA4"/>
<path d="M164.943 218.007C164.524 220.728 166.129 223.285 168.498 223.728C170.826 224.011 173.156 222.138 173.533 219.257C174.007 216.029 172.889 211.734 170.926 207.08C167.61 210.938 165.376 214.619 164.943 218.007" fill="#279DA4"/>
<path d="M204.221 224.703C204.182 227.457 206.125 229.768 208.532 229.879C210.876 229.838 212.925 227.662 212.901 224.756C212.926 221.494 211.226 217.394 208.639 213.055C205.888 217.334 204.183 221.289 204.221 224.703" fill="#279DA4"/>
<path d="M219.346 223.32C219.308 226.073 221.25 228.384 223.657 228.495C226.002 228.455 228.051 226.278 228.027 223.373C228.051 220.11 226.351 216.011 223.764 211.672C221.013 215.95 219.308 219.905 219.346 223.32" fill="#279DA4"/>
<path d="M231.221 216.794C231.182 219.547 233.125 221.859 235.532 221.97C237.876 221.929 239.925 219.752 239.901 216.847C239.926 213.584 238.226 209.485 235.639 205.146C232.888 209.425 231.183 213.379 231.221 216.794" fill="#279DA4"/>
<path d="M241.965 225.345C241.926 228.099 243.868 230.41 246.275 230.521C248.62 230.48 250.669 228.304 250.645 225.399C250.669 222.136 248.969 218.036 246.383 213.697C243.631 217.976 241.926 221.931 241.965 225.345" fill="#279DA4"/>
<path d="M93.2212 160.703C93.1823 163.457 95.1246 165.768 97.532 165.879C99.8764 165.838 101.925 163.662 101.901 160.756C101.926 157.494 100.226 153.394 97.6392 149.055C94.8878 153.334 93.1825 157.289 93.2212 160.703" fill="#279DA4"/>
<path d="M108.346 159.32C108.308 162.073 110.25 164.384 112.657 164.495C115.002 164.455 117.051 162.278 117.027 159.373C117.051 156.11 115.351 152.011 112.764 147.672C110.013 151.95 108.308 155.905 108.346 159.32" fill="#279DA4"/>
<path d="M120.221 152.794C120.182 155.547 122.125 157.859 124.532 157.97C126.876 157.929 128.925 155.752 128.901 152.847C128.926 149.584 127.226 145.485 124.639 141.146C121.888 145.425 120.183 149.379 120.221 152.794" fill="#279DA4"/>
<path d="M130.965 161.345C130.926 164.099 132.868 166.41 135.275 166.521C137.62 166.48 139.669 164.304 139.645 161.399C139.669 158.136 137.969 154.036 135.383 149.697C132.631 153.976 130.926 157.931 130.965 161.345" fill="#279DA4"/>
<path d="M146.221 160.703C146.182 163.457 148.125 165.768 150.532 165.879C152.876 165.838 154.925 163.662 154.901 160.756C154.926 157.494 153.226 153.394 150.639 149.055C147.888 153.334 146.183 157.289 146.221 160.703" fill="#279DA4"/>
<path d="M161.346 159.32C161.308 162.073 163.25 164.384 165.657 164.495C168.002 164.455 170.051 162.278 170.027 159.373C170.051 156.11 168.351 152.011 165.764 147.672C163.013 151.95 161.308 155.905 161.346 159.32" fill="#279DA4"/>
<path d="M173.221 152.794C173.182 155.547 175.125 157.859 177.532 157.97C179.876 157.929 181.925 155.752 181.901 152.847C181.926 149.584 180.226 145.485 177.639 141.146C174.888 145.425 173.183 149.379 173.221 152.794" fill="#279DA4"/>
<path d="M183.965 161.345C183.926 164.099 185.868 166.41 188.275 166.521C190.62 166.48 192.669 164.304 192.645 161.399C192.669 158.136 190.969 154.036 188.383 149.697C185.631 153.976 183.926 157.931 183.965 161.345" fill="#279DA4"/>
<path d="M271.221 162.703C271.182 165.457 273.125 167.768 275.532 167.879C277.876 167.838 279.925 165.662 279.901 162.756C279.926 159.494 278.226 155.394 275.639 151.055C272.888 155.334 271.183 159.289 271.221 162.703" fill="#279DA4"/>
<path d="M286.346 161.32C286.308 164.073 288.25 166.384 290.657 166.495C293.002 166.455 295.051 164.278 295.027 161.373C295.051 158.11 293.351 154.011 290.764 149.672C288.013 153.95 286.308 157.905 286.346 161.32" fill="#279DA4"/>
<path d="M298.221 154.794C298.182 157.547 300.125 159.859 302.532 159.97C304.876 159.929 306.925 157.752 306.901 154.847C306.926 151.584 305.226 147.485 302.639 143.146C299.888 147.425 298.183 151.379 298.221 154.794" fill="#279DA4"/>
<path d="M308.965 163.345C308.926 166.099 310.868 168.41 313.275 168.521C315.62 168.48 317.669 166.304 317.645 163.399C317.669 160.136 315.969 156.036 313.383 151.697C310.631 155.976 308.926 159.931 308.965 163.345" fill="#279DA4"/>
<path d="M382.221 160.703C382.182 163.457 384.125 165.768 386.532 165.879C388.876 165.838 390.925 163.662 390.901 160.756C390.926 157.494 389.226 153.394 386.639 149.055C383.888 153.334 382.183 157.289 382.221 160.703" fill="#279DA4"/>
<path d="M397.346 159.32C397.308 162.073 399.25 164.384 401.657 164.495C404.002 164.455 406.051 162.278 406.027 159.373C406.051 156.11 404.351 152.011 401.764 147.672C399.013 151.95 397.308 155.905 397.346 159.32" fill="#279DA4"/>
<path d="M409.221 152.794C409.182 155.547 411.125 157.859 413.532 157.97C415.876 157.929 417.925 155.752 417.901 152.847C417.926 149.584 416.226 145.485 413.639 141.146C410.888 145.425 409.183 149.379 409.221 152.794" fill="#279DA4"/>
<path d="M419.965 161.345C419.926 164.099 421.868 166.41 424.275 166.521C426.62 166.48 428.669 164.304 428.645 161.399C428.669 158.136 426.969 154.036 424.383 149.697C421.631 153.976 419.926 157.931 419.965 161.345" fill="#279DA4"/>
<path d="M210.221 160.703C210.182 163.457 212.125 165.768 214.532 165.879C216.876 165.838 218.925 163.662 218.901 160.756C218.926 157.494 217.226 153.394 214.639 149.055C211.888 153.334 210.183 157.289 210.221 160.703" fill="#279DA4"/>
<path d="M225.346 159.32C225.308 162.073 227.25 164.384 229.657 164.495C232.002 164.455 234.051 162.278 234.027 159.373C234.051 156.11 232.351 152.011 229.764 147.672C227.013 151.95 225.308 155.905 225.346 159.32" fill="#279DA4"/>
<path d="M237.221 152.794C237.182 155.547 239.125 157.859 241.532 157.97C243.876 157.929 245.925 155.752 245.901 152.847C245.926 149.584 244.226 145.485 241.639 141.146C238.888 145.425 237.183 149.379 237.221 152.794" fill="#279DA4"/>
<path d="M247.965 161.345C247.926 164.099 249.868 166.41 252.275 166.521C254.62 166.48 256.669 164.304 256.645 161.399C256.669 158.136 254.969 154.036 252.383 149.697C249.631 153.976 247.926 157.931 247.965 161.345" fill="#279DA4"/>
<path d="M324.221 160.703C324.182 163.457 326.125 165.768 328.532 165.879C330.876 165.838 332.925 163.662 332.901 160.756C332.926 157.494 331.226 153.394 328.639 149.055C325.888 153.334 324.183 157.289 324.221 160.703" fill="#279DA4"/>
<path d="M339.346 159.32C339.308 162.073 341.25 164.384 343.657 164.495C346.002 164.455 348.051 162.278 348.027 159.373C348.051 156.11 346.351 152.011 343.764 147.672C341.013 151.95 339.308 155.905 339.346 159.32" fill="#279DA4"/>
<path d="M351.221 152.794C351.182 155.547 353.125 157.859 355.532 157.97C357.876 157.929 359.925 155.752 359.901 152.847C359.926 149.584 358.226 145.485 355.639 141.146C352.888 145.425 351.183 149.379 351.221 152.794" fill="#279DA4"/>
<path d="M361.965 161.345C361.926 164.099 363.868 166.41 366.275 166.521C368.62 166.48 370.669 164.304 370.645 161.399C370.669 158.136 368.969 154.036 366.383 149.697C363.631 153.976 361.926 157.931 361.965 161.345" fill="#279DA4"/>
<path d="M103.221 107.703C103.182 110.457 105.125 112.768 107.532 112.879C109.876 112.838 111.925 110.662 111.901 107.756C111.926 104.494 110.226 100.394 107.639 96.0551C104.888 100.334 103.183 104.289 103.221 107.703" fill="#279DA4"/>
<path d="M118.346 106.32C118.308 109.073 120.25 111.384 122.657 111.495C125.002 111.455 127.051 109.278 127.027 106.373C127.051 103.11 125.351 99.0108 122.764 94.6718C120.013 98.9505 118.308 102.905 118.346 106.32" fill="#279DA4"/>
<path d="M130.221 99.794C130.182 102.547 132.125 104.859 134.532 104.97C136.876 104.929 138.925 102.752 138.901 99.8473C138.926 96.5844 137.226 92.4849 134.639 88.146C131.888 92.4247 130.183 96.3794 130.221 99.794" fill="#279DA4"/>
<path d="M140.965 108.345C140.926 111.099 142.868 113.41 145.275 113.521C147.62 113.48 149.669 111.304 149.645 108.399C149.669 105.136 147.969 101.036 145.383 96.6973C142.631 100.976 140.926 104.931 140.965 108.345" fill="#279DA4"/>
<path d="M159.221 107.703C159.182 110.457 161.125 112.768 163.532 112.879C165.876 112.838 167.925 110.662 167.901 107.756C167.926 104.494 166.226 100.394 163.639 96.0551C160.888 100.334 159.183 104.289 159.221 107.703" fill="#279DA4"/>
<path d="M174.346 106.32C174.308 109.073 176.25 111.384 178.657 111.495C181.002 111.455 183.051 109.278 183.027 106.373C183.051 103.11 181.351 99.0108 178.764 94.6718C176.013 98.9505 174.308 102.905 174.346 106.32" fill="#279DA4"/>
<path d="M186.221 99.794C186.182 102.547 188.125 104.859 190.532 104.97C192.876 104.929 194.925 102.752 194.901 99.8473C194.926 96.5844 193.226 92.4849 190.639 88.146C187.888 92.4247 186.183 96.3794 186.221 99.794" fill="#279DA4"/>
<path d="M196.965 108.345C196.926 111.099 198.868 113.41 201.275 113.521C203.62 113.48 205.669 111.304 205.645 108.399C205.669 105.136 203.969 101.036 201.383 96.6973C198.631 100.976 196.926 104.931 196.965 108.345" fill="#279DA4"/>
<path d="M220.221 107.703C220.182 110.457 222.125 112.768 224.532 112.879C226.876 112.838 228.925 110.662 228.901 107.756C228.926 104.494 227.226 100.394 224.639 96.0551C221.888 100.334 220.183 104.289 220.221 107.703" fill="#279DA4"/>
<path d="M235.346 106.32C235.308 109.073 237.25 111.384 239.657 111.495C242.002 111.455 244.051 109.278 244.027 106.373C244.051 103.11 242.351 99.0108 239.764 94.6718C237.013 98.9505 235.308 102.905 235.346 106.32" fill="#279DA4"/>
<path d="M247.221 99.794C247.182 102.547 249.125 104.859 251.532 104.97C253.876 104.929 255.925 102.752 255.901 99.8473C255.926 96.5844 254.226 92.4849 251.639 88.146C248.888 92.4247 247.183 96.3794 247.221 99.794" fill="#279DA4"/>
<path d="M257.965 108.345C257.926 111.099 259.868 113.41 262.275 113.521C264.62 113.48 266.669 111.304 266.645 108.399C266.669 105.136 264.969 101.036 262.383 96.6973C259.631 100.976 257.926 104.931 257.965 108.345" fill="#279DA4"/>
<path d="M225.084 57.9538C224.905 59.7184 226.5 61.3429 228.622 61.5891C230.697 61.7332 232.623 60.4849 232.755 58.6184C232.948 56.5258 231.662 53.7709 229.604 50.7979C226.946 53.3445 225.23 55.7592 225.084 57.9538" fill="#279DA4"/>
<path d="M238.528 58.1643C238.348 59.9288 239.943 61.5534 242.066 61.7995C244.14 61.9437 246.066 60.6954 246.198 58.8288C246.392 56.7362 245.105 53.9813 243.048 51.0083C240.39 53.555 238.674 55.9696 238.528 58.1643" fill="#279DA4"/>
<path d="M249.369 54.8378C249.19 56.6023 250.785 58.2268 252.907 58.473C254.982 58.6171 256.908 57.3688 257.04 55.5023C257.233 53.4097 255.947 50.6548 253.889 47.6818C251.231 50.2285 249.515 52.6431 249.369 54.8378" fill="#279DA4"/>
<path d="M258.415 61.107C258.236 62.8715 259.831 64.4961 261.953 64.7422C264.028 64.8864 265.954 63.6381 266.086 61.7715C266.279 59.6789 264.993 56.924 262.935 53.951C260.277 56.4977 258.561 58.9123 258.415 61.107" fill="#279DA4"/>
<path d="M274.106 62.2177C274.311 63.9795 276.218 65.2223 278.344 65.0056C280.401 64.6995 282.013 63.0657 281.739 61.2145C281.478 59.1293 279.628 56.7162 276.978 54.2562C274.931 57.3156 273.776 60.0431 274.106 62.2177" fill="#279DA4"/>
<path d="M287.279 59.5276C287.484 61.2894 289.391 62.5323 291.517 62.3155C293.574 62.0094 295.186 60.3756 294.913 58.5244C294.651 56.4392 292.801 54.0261 290.152 51.5661C288.105 54.6255 286.949 57.3531 287.279 59.5276" fill="#279DA4"/>
<path d="M297.15 53.9441C297.354 55.7058 299.262 56.9487 301.387 56.732C303.444 56.4259 305.056 54.792 304.783 52.9409C304.521 50.8557 302.672 48.4426 300.022 45.9826C297.975 49.0419 296.819 51.7695 297.15 53.9441" fill="#279DA4"/>
<path d="M307.334 58.1177C307.538 59.8795 309.446 61.1223 311.571 60.9056C313.628 60.5995 315.24 58.9657 314.967 57.1145C314.705 55.0293 312.856 52.6162 310.206 50.1562C308.159 53.2156 307.003 55.9431 307.334 58.1177" fill="#279DA4"/>
<path d="M331.912 60.7815C331.968 62.5542 333.764 63.9536 335.9 63.9169C337.975 63.7853 339.719 62.2933 339.603 60.4257C339.518 58.3258 337.879 55.7653 335.446 53.0906C333.148 55.9664 331.767 58.5868 331.912 60.7815" fill="#279DA4"/>
<path d="M345.266 59.212C345.321 60.9847 347.117 62.384 349.253 62.3473C351.328 62.2158 353.073 60.7237 352.956 58.8561C352.872 56.7563 351.232 54.1958 348.799 51.5211C346.501 54.3969 345.12 57.0173 345.266 59.212" fill="#279DA4"/>
<path d="M355.572 54.4808C355.627 56.2535 357.423 57.6528 359.559 57.6161C361.635 57.4846 363.379 55.9925 363.262 54.1249C363.178 52.0251 361.538 49.4646 359.105 46.7899C356.807 49.6657 355.426 52.2861 355.572 54.4808" fill="#279DA4"/>
<path d="M365.367 59.4985C365.423 61.2712 367.219 62.6705 369.355 62.6338C371.43 62.5023 373.174 61.0102 373.058 59.1426C372.973 57.0428 371.334 54.4823 368.901 51.8076C366.603 54.6834 365.222 57.3038 365.367 59.4985" fill="#279DA4"/>
<path d="M166.382 62.8694C166.438 64.6421 168.234 66.0414 170.37 66.0048C172.445 65.8732 174.189 64.3812 174.073 62.5136C173.988 60.4137 172.348 57.8532 169.916 55.1785C167.618 58.0543 166.237 60.6747 166.382 62.8694" fill="#279DA4"/>
<path d="M179.735 61.2999C179.791 63.0726 181.587 64.4719 183.723 64.4352C185.798 64.3037 187.542 62.8116 187.426 60.944C187.341 58.8442 185.702 56.2837 183.269 53.609C180.971 56.4848 179.59 59.1052 179.735 61.2999" fill="#279DA4"/>
<path d="M190.042 56.5687C190.097 58.3414 191.893 59.7407 194.029 59.704C196.104 59.5725 197.849 58.0804 197.732 56.2128C197.648 54.113 196.008 51.5525 193.575 48.8778C191.277 51.7536 189.896 54.374 190.042 56.5687" fill="#279DA4"/>
<path d="M199.837 61.5864C199.893 63.3591 201.689 64.7584 203.825 64.7217C205.9 64.5902 207.644 63.0981 207.528 61.2305C207.443 59.1307 205.804 56.5702 203.371 53.8955C201.073 56.7713 199.692 59.3917 199.837 61.5864" fill="#279DA4"/>
<path d="M282.221 105.703C282.182 108.457 284.125 110.768 286.532 110.879C288.876 110.838 290.925 108.662 290.901 105.756C290.926 102.494 289.226 98.3941 286.639 94.0551C283.888 98.3338 282.183 102.289 282.221 105.703" fill="#279DA4"/>
<path d="M297.346 104.32C297.308 107.073 299.25 109.384 301.657 109.495C304.002 109.455 306.051 107.278 306.027 104.373C306.051 101.11 304.351 97.0108 301.764 92.6718C299.013 96.9505 297.308 100.905 297.346 104.32" fill="#279DA4"/>
<path d="M309.221 97.794C309.182 100.547 311.125 102.859 313.532 102.97C315.876 102.929 317.925 100.752 317.901 97.8473C317.926 94.5844 316.226 90.4849 313.639 86.146C310.888 90.4247 309.183 94.3794 309.221 97.794" fill="#279DA4"/>
<path d="M319.965 106.345C319.926 109.099 321.868 111.41 324.275 111.521C326.62 111.48 328.669 109.304 328.645 106.399C328.669 103.136 326.969 99.0363 324.383 94.6973C321.631 98.976 319.926 102.931 319.965 106.345" fill="#279DA4"/>
<path d="M338.221 105.703C338.182 108.457 340.125 110.768 342.532 110.879C344.876 110.838 346.925 108.662 346.901 105.756C346.926 102.494 345.226 98.3941 342.639 94.0551C339.888 98.3338 338.183 102.289 338.221 105.703" fill="#279DA4"/>
<path d="M353.346 104.32C353.308 107.073 355.25 109.384 357.657 109.495C360.002 109.455 362.051 107.278 362.027 104.373C362.051 101.11 360.351 97.0108 357.764 92.6718C355.013 96.9505 353.308 100.905 353.346 104.32" fill="#279DA4"/>
<path d="M365.221 97.794C365.182 100.547 367.125 102.859 369.532 102.97C371.876 102.929 373.925 100.752 373.901 97.8473C373.926 94.5844 372.226 90.4849 369.639 86.146C366.888 90.4247 365.183 94.3794 365.221 97.794" fill="#279DA4"/>
<path d="M375.965 106.345C375.926 109.099 377.868 111.41 380.275 111.521C382.62 111.48 384.669 109.304 384.645 106.399C384.669 103.136 382.969 99.0363 380.383 94.6973C377.631 98.976 375.926 102.931 375.965 106.345" fill="#279DA4"/>
<path d="M393.875 111.598C394.358 114.309 396.703 116.21 399.088 115.864C401.382 115.38 402.982 112.855 402.408 110.007C401.815 106.798 399.369 103.095 396.008 99.3239C394.116 104.046 393.191 108.252 393.875 111.598" fill="#279DA4"/>
<path d="M408.465 107.376C408.948 110.087 411.293 111.988 413.678 111.642C415.972 111.158 417.572 108.633 416.998 105.785C416.404 102.576 413.959 98.8728 410.598 95.1019C408.706 99.8242 407.781 104.03 408.465 107.376" fill="#279DA4"/>
<path d="M418.889 98.7198C419.373 101.431 421.717 103.332 424.102 102.986C426.396 102.502 427.996 99.9768 427.423 97.1287C426.829 93.9202 424.383 90.2168 421.022 86.4459C419.131 91.1682 418.205 95.3742 418.889 98.7198" fill="#279DA4"/>
<path d="M431.057 105.083C431.541 107.793 433.885 109.695 436.27 109.348C438.564 108.865 440.164 106.339 439.591 103.491C438.997 100.283 436.551 96.5795 433.19 92.8087C431.299 97.5309 430.373 101.737 431.057 105.083" fill="#279DA4"/>
<path d="M282.634 226.478C282.642 229.836 284.742 232.613 287.295 232.698C289.778 232.6 291.909 229.904 291.831 226.363C291.798 222.385 289.923 217.423 287.105 212.188C284.267 217.461 282.532 222.317 282.634 226.478" fill="#279DA4"/>
<path d="M298.634 224.478C298.642 227.836 300.742 230.613 303.295 230.698C305.778 230.6 307.909 227.904 307.831 224.363C307.798 220.385 305.923 215.423 303.105 210.188C300.267 215.461 298.532 220.317 298.634 224.478" fill="#279DA4"/>
<path d="M345.634 220.478C345.642 223.836 347.742 226.613 350.295 226.698C352.778 226.6 354.909 223.904 354.831 220.363C354.798 216.385 352.923 211.423 350.105 206.188C347.267 211.461 345.532 216.317 345.634 220.478" fill="#279DA4"/>
<path d="M322.634 226.478C322.642 229.836 324.742 232.613 327.295 232.698C329.778 232.6 331.909 229.904 331.831 226.363C331.798 222.385 329.923 217.423 327.105 212.188C324.267 217.461 322.532 222.317 322.634 226.478" fill="#279DA4"/>
<path d="M375.943 221.007C375.524 223.728 377.129 226.285 379.498 226.728C381.826 227.011 384.156 225.138 384.533 222.257C385.007 219.029 383.889 214.734 381.926 210.08C378.61 213.938 376.376 217.619 375.943 221.007" fill="#279DA4"/>
<path d="M391.114 221.723C390.696 224.445 392.301 227.002 394.67 227.444C396.997 227.728 399.327 225.855 399.704 222.974C400.178 219.746 399.06 215.451 397.097 210.796C393.782 214.655 391.547 218.336 391.114 221.723" fill="#279DA4"/>
<path d="M434.943 222.007C434.524 224.728 436.129 227.285 438.498 227.728C440.826 228.011 443.156 226.138 443.533 223.257C444.007 220.029 442.889 215.734 440.926 211.08C437.61 214.938 435.376 218.619 434.943 222.007" fill="#279DA4"/>
<path d="M414.943 220.007C414.524 222.728 416.129 225.285 418.498 225.728C420.826 226.011 423.156 224.138 423.533 221.257C424.007 218.029 422.889 213.734 420.926 209.08C417.61 212.938 415.376 216.619 414.943 220.007" fill="#279DA4"/>
<path d="M454.221 226.703C454.182 229.457 456.125 231.768 458.532 231.879C460.876 231.838 462.925 229.662 462.901 226.756C462.926 223.494 461.226 219.394 458.639 215.055C455.888 219.334 454.183 223.289 454.221 226.703" fill="#279DA4"/>
<path d="M469.346 225.32C469.308 228.073 471.25 230.384 473.657 230.495C476.002 230.455 478.051 228.278 478.027 225.373C478.051 222.11 476.351 218.011 473.764 213.672C471.013 217.95 469.308 221.905 469.346 225.32" fill="#279DA4"/>
<path d="M481.221 218.794C481.182 221.547 483.125 223.859 485.532 223.97C487.876 223.929 489.925 221.752 489.901 218.847C489.926 215.584 488.226 211.485 485.639 207.146C482.888 211.425 481.183 215.379 481.221 218.794" fill="#279DA4"/>
<path d="M491.965 227.345C491.926 230.099 493.868 232.41 496.275 232.521C498.62 232.48 500.669 230.304 500.645 227.399C500.669 224.136 498.969 220.036 496.383 215.697C493.631 219.976 491.926 223.931 491.965 227.345" fill="#279DA4"/>
<path d="M406.221 295.32C406.182 298.073 408.125 300.384 410.532 300.495C412.876 300.455 414.925 298.278 414.901 295.373C414.926 292.11 413.226 288.011 410.639 283.672C407.888 287.95 406.183 291.905 406.221 295.32" fill="#279DA4"/>
<path d="M418.096 288.794C418.057 291.547 419.999 293.859 422.407 293.97C424.751 293.929 426.8 291.752 426.776 288.847C426.8 285.584 425.1 281.485 422.514 277.146C419.763 281.425 418.057 285.379 418.096 288.794" fill="#279DA4"/>
<path d="M428.839 297.345C428.8 300.099 430.743 302.41 433.15 302.521C435.494 302.48 437.544 300.304 437.519 297.399C437.544 294.136 435.844 290.036 433.257 285.697C430.506 289.976 428.801 293.931 428.839 297.345" fill="#279DA4"/>
<path d="M468.221 295.32C468.182 298.073 470.125 300.384 472.532 300.495C474.876 300.455 476.925 298.278 476.901 295.373C476.926 292.11 475.226 288.011 472.639 283.672C469.888 287.95 468.183 291.905 468.221 295.32" fill="#279DA4"/>
<path d="M480.096 288.794C480.057 291.547 481.999 293.859 484.407 293.97C486.751 293.929 488.8 291.752 488.776 288.847C488.8 285.584 487.1 281.485 484.514 277.146C481.763 281.425 480.057 285.379 480.096 288.794" fill="#279DA4"/>
<path d="M490.839 297.345C490.8 300.099 492.743 302.41 495.15 302.521C497.494 302.48 499.544 300.304 499.519 297.399C499.544 294.136 497.844 290.036 495.257 285.697C492.506 289.976 490.801 293.931 490.839 297.345" fill="#279DA4"/>
</svg>
