<svg width="537" height="530" viewBox="0 0 537 530" fill="none" xmlns="http://www.w3.org/2000/svg">
<path d="M11.5 310.5C92.3333 229.5 370 151 464.5 438M532 265C532 408.594 414.027 525 268.5 525C122.973 525 5 408.594 5 265C5 121.406 122.973 5 268.5 5C414.027 5 532 121.406 532 265Z" stroke="white" stroke-width="9"/>
<path d="M270.527 409.12C216.211 430.847 164.697 413.862 145.729 402.654L150.256 394.895C190.993 420.113 237.118 404.81 270.527 400.068V409.12Z" fill="white"/>
<path d="M344.241 358.038L291.865 340.579V332.173L344.241 347.692V358.038Z" fill="white"/>
<path d="M153.489 334.759L96.5865 347.692L94 337.993L153.489 327V334.759Z" fill="white"/>
<path d="M123.366 196.328C124.488 193.62 126.791 189.902 129.961 189.902C132.056 189.902 135.583 192.152 136.895 193.791C138.527 195.831 140.462 196.647 142.832 197.324C144.981 197.938 147.365 199.71 149.578 199.71C150.572 199.71 152.357 200.059 153.13 199.372C154.116 198.496 155.573 197.986 156.7 197.343C158.993 196.033 160.621 194.051 163.107 192.946C164.098 192.506 165.266 191.963 166.057 191.33C168.07 189.72 171.924 192.449 173.762 193.265C174.644 193.657 176.946 193.887 177.482 194.825C177.858 195.482 178.128 196.198 178.835 196.591C179.904 197.185 180.966 197.538 182.048 198.019C185.108 199.379 187.843 201.063 191.274 201.063C192.471 201.063 193.885 199.504 194.92 198.846C196.33 197.949 197.399 197.073 198.189 195.652C199.072 194.062 199.434 191.975 200.989 190.766C201.768 190.16 205.343 190.344 206.307 190.653C210.427 191.978 211.296 196.658 215.025 198.621C217.715 200.036 221.432 201.97 224.421 200.049C226.113 198.96 227.68 197.596 229.419 196.648C231.146 195.706 232.927 194.742 234.304 193.284C234.932 192.619 235.175 190.885 236.183 190.597C237.821 190.129 239.47 190 241.069 190.841C243.4 192.068 244.009 194.975 246.819 194.975" stroke="url(#paint0_linear)" stroke-width="8" stroke-linecap="round" stroke-linejoin="round"/>
<path d="M111.373 198.561C108.869 196.057 104.076 190.544 100.239 190.544C96.5338 190.544 91.1431 192.762 88.5603 195.344C87.2184 196.686 84.9008 197.371 83.5128 198.759C82.2915 199.98 80.0494 200.433 78.4158 200.342C76.5484 200.239 75.0829 198.468 73.7394 197.423C72.5261 196.479 70.2385 194.247 69.5083 192.969C68.808 191.743 66.4853 190.624 65.0546 190.544C62.2386 190.388 60.9195 192.21 58.8194 193.86C55.2277 196.682 52.357 200.788 47.4624 200.788C42.7597 200.788 39.6372 198.975 36.3282 195.666C35.0386 194.376 34.1541 191.984 32.5425 191.089C31.0897 190.281 28.5342 189.831 28.5342 191.88" stroke="url(#paint1_linear)" stroke-width="8" stroke-linecap="round" stroke-linejoin="round"/>
<path d="M175.507 153.578C171.888 150.837 168.588 146.686 163.927 150.015C161.342 151.862 158.566 153.818 155.663 155.137C154.126 155.836 151.796 157.141 150.121 157.141C146.55 157.141 144.07 156.202 141.856 153.356C139.793 150.703 137.811 147.023 133.642 148.778C130.797 149.976 127.744 150.694 124.833 151.698C122.108 152.638 120.436 154.241 118.252 156.028C116.712 157.287 115.163 159.083 112.957 158.453C111.493 158.034 110.498 155.824 109.691 154.816C108.684 153.557 106.249 152.901 104.594 151.797C102.452 150.369 102.991 148.679 100.462 148.679C97.7993 148.679 95.7703 150.03 93.3604 150.906C92.3283 151.281 89.2905 154.395 88.6593 153.133" stroke="url(#paint2_linear)" stroke-width="8" stroke-linecap="round" stroke-linejoin="round"/>
<path d="M247.617 110.507C245.433 108.323 240.952 102.979 237.182 104.655C235.572 105.37 233.678 106.62 231.964 107.001C229.4 107.571 228.513 109.34 226.471 110.507C224.704 111.516 225.177 113.488 222.772 113.488C220.95 113.488 219.128 113.488 217.306 113.488C213.723 113.488 211.386 109.556 209.107 107.277C208.196 106.366 207.287 104.627 205.877 104.544C204.018 104.435 202.677 104.943 200.908 105.041C198.462 105.177 196.301 107.088 194.2 108.022C192.323 108.856 191.342 111.501 189.231 111.97C187.385 112.38 186.441 113.488 184.51 113.488C182.088 113.488 181.58 113.084 180.425 111.004C179.634 109.58 178.581 107.056 177.305 106.035C175.366 104.484 172.564 105.628 169.907 105.51C169.331 105.485 161.305 102.006 161.156 104.544C161.017 106.903 159.385 108.611 158.423 110.728C157.075 113.693 151.561 112.495 148.734 112.495C144.269 112.495 141.309 110.384 137.829 107.774C136.754 106.967 135.321 104.135 133.827 104.047C131.767 103.926 130.71 104.835 128.858 105.041C127.036 105.243 125.467 106.958 124.137 108.022C123.396 108.615 122.989 109.765 122.287 110.397C121.789 110.845 120.8 110.493 120.162 111.004C117.759 112.926 113.138 113.126 110.086 112.108C105.73 110.656 102.291 108.231 99.5405 104.793C98.9246 104.023 95.0318 104.503 93.9642 104.544C91.4924 104.639 90.5963 107.517 90.5963 109.513" stroke="url(#paint3_linear)" stroke-width="8" stroke-linecap="round" stroke-linejoin="round"/>
<path d="M319.17 67.7736C316.084 65.3734 313.284 62.5899 310.833 59.5471C310.556 59.2028 309.346 57.8573 309.232 58.8294C309.113 59.8452 306.445 62.1924 305.754 63.1911C303.038 67.1137 297.277 68.3071 294.325 71.9972C292.879 73.8046 286.259 70.1894 284.663 69.7336C282.956 69.246 280.412 67.2771 279.197 66.062C278.338 65.2031 275.601 62.3717 274.449 62.3077C272.476 62.198 270.463 62.3077 268.486 62.3077C266.338 62.3077 265.232 64.3475 263.904 65.6756C262.322 67.2575 259.54 70.755 257.306 70.755C253.843 70.755 249.533 70.5421 247.12 67.5251C246.354 66.5677 244.064 65.9407 242.924 65.2891C241.798 64.6459 241.056 63.8177 240.053 62.915C238.283 61.3226 233.678 62.9074 232.213 64.2953C230.65 65.7753 228.427 66.4474 227.023 67.7736C223.491 71.109 220.694 70.755 216.036 70.755C214.666 70.755 211.892 70.8145 211.37 68.9882C210.88 67.2718 210.122 66.2679 209.355 64.5437C208.518 62.6589 207.286 62.3077 205.325 62.3077C202.814 62.3077 200.176 62.062 197.706 62.5561C195.67 62.9633 196.348 63.2904 195.553 64.7922C194.829 66.1587 193.052 67.1824 191.964 68.2705C190.31 69.9247 188.683 71.6354 186.995 73.2395C183.321 76.7294 177.549 69.2932 175.787 67.0282C174.016 64.7509 168.621 60.0624 165.38 62.5837C164.173 63.5223 162.536 64.931 161.653 66.0344C160.577 67.3799 157.684 66.7759 156.187 67.7736" stroke="url(#paint4_linear)" stroke-width="8" stroke-linecap="round" stroke-linejoin="round"/>
<path d="M117.407 223.027C111.858 223.969 105.546 221.521 101.524 226.676C100.299 228.245 98.9774 232.454 97.104 233.13C95.0099 233.885 93.0723 235.278 90.8767 236.071C86.1613 237.772 80.2872 239.876 76.0692 235.861C73.5249 233.438 73.1853 234.222 70.2984 235.899C68.1462 237.149 65.9744 239.719 66.0367 242.257" stroke="url(#paint5_linear)" stroke-width="8" stroke-linecap="round" stroke-linejoin="round"/>
<path d="M350.446 151.84C348.886 151.497 346.872 151.2 345.549 150.171C344.634 149.46 344.201 148.575 342.937 148.575C340.14 148.575 338.131 152.071 336.48 154.089C333.712 157.473 331.639 157.063 327.266 157.063C322.489 157.063 320.91 155.505 317.146 153.291C313.568 151.186 312.327 147.922 307.714 147.922C303.879 147.922 304.815 148.499 302.454 150.86C301.013 152.302 299.432 152.957 297.883 154.161C294.714 156.626 290.181 157.063 286.13 157.063C284.4 157.063 282.887 157.339 281.596 156.048C280.48 154.932 281.556 152.888 280.218 151.55C275.496 146.828 272.96 146.536 266.252 149.554C263.514 150.786 261.553 151.138 259.831 153.291C258.587 154.846 257.444 155.537 255.26 156.265C254.491 156.522 249.991 158.097 249.892 156.41C249.768 154.309 249.421 154.16 248.441 152.493C246.178 148.647 242.187 147.269 237.848 147.269C233.445 147.269 231.518 151.113 228.634 153.472C226.071 155.569 221.236 157.096 217.897 155.612C215.284 154.451 210.799 154.068 208.901 151.695C207.129 149.48 206.12 145.063 202.226 147.124C199.868 148.372 197.536 150.6 195.044 151.985C194.309 152.393 192.091 153.828 191.779 154.452" stroke="url(#paint6_linear)" stroke-width="8" stroke-linecap="round" stroke-linejoin="round"/>
<path d="M421.618 108.092C417.304 106.409 413.053 104.445 408.232 105.517C402.816 106.72 399.006 111.641 394.702 114.622C388.192 119.129 392.155 113.164 389.333 110.341C386.464 107.472 383.181 105.48 378.849 105.48C374.868 105.48 371.329 105.279 368.729 108.89C366.346 112.2 362.025 113.316 357.991 113.316C353.039 113.316 352.439 110.207 350.301 106.786C349 104.704 342.499 104.917 340.797 106.278C339.218 107.541 339.321 110.203 336.734 110.051C335.612 109.985 335.798 109.125 334.34 109.688C332.107 110.551 329.73 112.01 327.266 112.01C326.006 112.01 324.746 113.622 323.349 113.932C320.947 114.466 320.218 112.64 318.959 110.994C317.841 109.531 317.442 108.395 316.638 106.786C316.144 105.798 315.397 106.372 314.534 105.988C312.692 105.17 311.11 103.521 308.984 103.521C306.234 103.521 300.521 107.74 298.573 109.688C295.734 112.527 292.645 113.969 288.416 113.969C286.209 113.969 280.709 112.296 279.964 109.688C279.213 107.059 277.959 102.868 274.704 102.868C269.969 102.868 268.772 107.467 264.909 109.398" stroke="url(#paint7_linear)" stroke-width="8" stroke-linecap="round" stroke-linejoin="round"/>
<path d="M432.718 70.8738C428.478 71.5522 424.571 73.2251 423.54 68.5885C422.866 65.5556 421.442 63.6634 419.332 62.0227C417.418 60.534 413.739 60.7727 411.823 62.3855C410.799 63.2484 410.163 63.3366 409.212 64.3443C408.217 65.3976 406.123 65.9614 405.439 66.9561C403.191 70.2265 396.249 69.5679 392.561 69.5679C387.646 69.5679 388.415 61.0796 382.767 61.0796C376.254 61.0796 371.959 62.1294 367.423 66.6659C364.327 69.7614 358.472 69.0466 355.017 67.3189C350.799 65.2102 347.775 59.9449 342.611 62.2404C341.552 62.7109 340.454 62.5679 339.346 63.1835C338.568 63.6157 337.633 64.9444 336.734 64.9973C333.879 65.1652 332.816 65.7065 332.816 68.915" stroke="url(#paint8_linear)" stroke-width="8" stroke-linecap="round" stroke-linejoin="round"/>
<path d="M366.117 25.1672C363.109 25.2424 357.599 29.0255 354.69 26.7633C352.528 25.0817 351.174 22.187 349.648 20.0887C347.773 17.51 345.134 16.0828 341.667 17.6583C340.245 18.3048 338.339 19.8514 337.387 21.1044C336.512 22.2562 333.215 25.8202 331.837 25.8202C328.437 25.8202 325.343 27.779 322.369 27.779C317.512 27.779 318.083 22.5313 314.824 20.6691C312.478 19.3284 306.192 21.0999 304.087 22.0476C300.775 23.5379 296.496 23.2737 293.494 25.6751C292.172 26.7327 291.087 28.1578 289.722 29.4477C288.571 30.5347 286.324 28.1475 285.477 27.4888C283.082 25.6255 282.143 23.5295 280.435 21.3946C279.277 19.9473 279.559 19.2907 277.316 19.2907C275.192 19.2907 272.928 19.0638 270.822 19.3269C266.614 19.853 264.761 24.9462 260.665 25.8565C258.33 26.3754 253.903 28.5965 251.705 26.6182C249.482 24.6168 247.48 22.0198 245.611 19.6171C241.737 14.6363 229.582 19.5626 228.344 24.5143" stroke="url(#paint9_linear)" stroke-width="8" stroke-linecap="round" stroke-linejoin="round"/>
<path d="M212.02 23.8613C209.776 22.9308 207.448 22.0593 206.76 19.6534C206.542 18.8882 202.852 19.2577 202.226 19.2907C198.405 19.4918 195.556 24.9453 193.23 27.2712C190.948 29.5529 185.812 30.0601 183.291 28.5771C181.843 27.7258 177.288 25.5679 176.761 24.5143" stroke="url(#paint10_linear)" stroke-width="8" stroke-linecap="round" stroke-linejoin="round"/>
<path d="M74.7591 154.088C74.4133 152.167 74.1298 149.246 71.8001 149.246C69.9423 149.246 68.26 148.284 66.3816 148.209C65.726 148.183 65.3142 147.671 64.5754 147.882C63.804 148.103 62.0129 149.707 61.2705 150.284C59.3343 151.79 56.5658 152.744 54.4301 154.088C52.4436 155.339 52.383 157.788 50.7217 159.449C49.758 160.413 47.815 159.766 46.7442 159.2C45.8138 158.707 45.0669 157.736 44.131 157.201C43.1044 156.615 39.6821 155.818 40.8646 155.818" stroke="url(#paint11_linear)" stroke-width="8" stroke-linecap="round" stroke-linejoin="round"/>
<path d="M143.586 68.3144C142.602 67.5687 141.343 66.9748 140.742 65.8934C140.361 65.208 139.411 63.9417 138.744 63.5492C138.288 63.281 137.829 62.7498 137.437 62.3579C136.804 61.7245 136.439 62.4348 135.785 62.4348C133.708 62.4348 132.365 62.4477 130.462 63.2802C128.587 64.1008 127.037 65.326 125.255 66.3161C123.946 67.0433 123.088 68.3232 121.797 69.083C119.983 70.1499 119.078 70.3896 116.782 70.3896C114.638 70.3896 113.612 70.7707 111.613 70.0438C110.472 69.629 109.365 68.4971 108.308 67.9686" stroke="url(#paint12_linear)" stroke-width="8" stroke-linecap="round" stroke-linejoin="round"/>
<path d="M38.4435 239.517C37.0762 238.149 33.9808 234.329 31.8721 234.329C30.6058 234.329 28.0337 233.279 26.9532 234.252C25.9223 235.18 22.2924 235.433 21.8613 236.942C21.548 238.039 21.9065 238.891 20.5355 239.44C20.0531 239.633 18.9106 240.192 18.7293 240.554" stroke="url(#paint13_linear)" stroke-width="8" stroke-linecap="round" stroke-linejoin="round"/>
<path d="M36.0225 279.983C33.5185 278.958 31.7452 277.594 29.4511 276.447C28.4009 275.922 26.0051 275.922 24.9549 276.447C23.1921 277.329 22.0534 277.873 21.0735 279.637C20.1431 281.312 17.7238 281.648 17 283.095" stroke="url(#paint14_linear)" stroke-width="8" stroke-linecap="round" stroke-linejoin="round"/>
<path d="M423.697 195.622C419.942 193.332 415.807 190.062 410.896 191.641C406.081 193.188 402.941 196.443 399.305 199.351C396.671 201.458 392.339 199.573 389.679 198.243C387.549 197.178 385.695 195.72 384.009 194.034C382.919 192.945 380.403 190.264 378.793 190.179C374.039 189.929 368.391 192.808 366.193 196.983C365.367 198.554 362.362 198.343 360.876 198.343C359.008 198.343 356.907 199.328 354.854 198.696C351.578 197.688 349.506 192.447 346.135 192.447C345.115 192.447 344.243 191.993 343.187 191.993C342.883 191.993 342.19 191.852 342.078 192.245C342.031 192.409 342.051 193.137 342.028 193.102C340.847 191.332 336.279 194.072 335.249 194.614C331.58 196.545 328.857 200.918 323.91 198.444C322.187 197.583 320.8 198.33 319.575 196.756C318.537 195.421 316.949 194.347 316.098 192.901C314.63 190.405 306.705 192.379 304.406 192.447C302.281 192.509 300.632 192.791 299.643 194.967C299.146 196.061 298.981 197.528 298.156 198.444C297.678 198.976 296.497 198.997 295.788 199.351C292.517 200.987 289.376 200.987 286.263 199.603C283.173 198.23 284.016 194.24 280.82 192.548C278.503 191.322 273.6 189.968 271.194 191.893C270.078 192.785 267.968 192.069 266.759 193.581C266.077 194.433 263.894 195.336 264.491 196.529" stroke="url(#paint15_linear)" stroke-width="8" stroke-linecap="round" stroke-linejoin="round"/>
<path d="M498.084 157.521C495.166 156.34 494.271 154.672 491.835 152.986C490.062 151.758 487.383 148.45 485.157 148.45C483.301 148.45 481.445 148.45 479.588 148.45C477.405 148.45 475.931 149.547 474.045 150.491C471.998 151.514 470.616 153.692 468.602 154.699C467.282 155.359 465.313 155.253 463.839 155.253C460.345 155.253 458.329 155.563 455.675 153.439C454.459 152.467 454.613 150.301 453.18 149.458C452.05 148.793 450.566 147.661 449.778 146.61C447.876 144.074 444.217 148.588 442.294 149.357C440.893 149.917 439.34 150.584 438.313 151.726C437.466 152.666 436.528 154.091 435.264 154.371C433.614 154.738 433.39 155.817 431.408 155.707C430.856 155.676 429.936 155.001 429.594 154.573C429.172 154.045 428.161 154.488 427.578 154.321C425.276 153.663 421.918 151.454 420.069 149.81C419.111 148.959 417.551 147.543 416.213 147.543C414.525 147.543 413.441 148.269 411.904 148.45C409.352 148.75 405.191 150.547 402.833 151.726C400.026 153.129 398.435 155.523 395.122 155.707C392.369 155.86 389.299 157.417 387.764 154.346C387.209 153.236 386.804 152.107 386.479 150.97C385.977 149.214 384.65 149.812 383.329 149.256C380.494 148.063 376.982 147.36 374.257 148.802C373.029 149.452 372.941 151.625 371.309 151.625C369.474 151.625 368.814 152.439 368.814 154.346" stroke="url(#paint16_linear)" stroke-width="8" stroke-linecap="round" stroke-linejoin="round"/>
<path d="M441.387 107.628C442.013 104.421 442.393 104.906 445.368 104.906C446.611 104.906 447.855 104.906 449.098 104.906C451.92 104.906 454.471 106.941 457.035 108.081C460.462 109.604 466.931 116.257 469.962 111.71" stroke="url(#paint17_linear)" stroke-width="8" stroke-linecap="round" stroke-linejoin="round"/>
<path d="M437.758 195.622C439.786 190.731 443.637 190.633 448.417 190.633C452.978 190.633 454.91 192.291 457.816 195.521C458.381 196.149 459.521 198.114 460.236 198.318C462.266 198.898 464.429 198.797 466.56 198.797C470.257 198.797 474.306 194.926 477.119 192.901C478.335 192.025 479.622 190.173 481.1 189.751C482.599 189.322 486.557 189.218 487.879 189.952C489.416 190.806 490.09 191.639 491.18 193.001C492.195 194.27 493.243 195.246 494.556 196.428C497.169 198.78 500.304 198.797 503.729 198.797C507.841 198.797 507.714 193.47 510.785 192.447" stroke="url(#paint18_linear)" stroke-width="8" stroke-linecap="round" stroke-linejoin="round"/>
<path d="M144 219.244C147.267 218.111 150.328 214.255 153.752 214.255C155.44 214.255 156.802 218.187 157.96 219.345C159.672 221.057 161.277 221.818 163.252 223.075C164.793 224.055 168.883 223.327 170.66 223.327C173.047 223.327 176.052 223.026 177.792 221.285C179.533 219.544 179.705 216.594 182.101 215.263C184.195 214.099 188.411 213.292 190.492 214.91C192.519 216.487 193.919 218.363 195.708 220.152" stroke="url(#paint19_linear)" stroke-width="8" stroke-linecap="round" stroke-linejoin="round"/>
<path d="M228.337 219.229C231.683 218.352 235.034 214.746 238.448 215.012C240.13 215.143 241.183 219.169 242.248 220.414C243.821 222.253 245.362 223.137 247.234 224.543C248.693 225.64 252.828 225.232 254.6 225.37C256.979 225.555 259.998 225.489 261.868 223.889C263.74 222.288 264.14 219.36 266.632 218.219C268.811 217.222 273.077 216.744 275.026 218.52C276.924 220.249 278.174 222.228 279.819 224.15" stroke="url(#paint20_linear)" stroke-width="8" stroke-linecap="round" stroke-linejoin="round"/>
<path d="M303.598 232.877C307.053 233.025 311.318 230.565 314.501 231.825C316.071 232.446 315.891 236.603 316.542 238.107C317.503 240.328 318.716 241.626 320.09 243.521C321.162 245 325.233 245.828 326.886 246.481C329.105 247.359 332.01 248.185 334.268 247.207C336.529 246.229 337.773 243.549 340.491 243.193C342.866 242.881 347.084 243.681 348.423 245.952C349.728 248.164 350.34 250.423 351.345 252.745" stroke="url(#paint21_linear)" stroke-width="8" stroke-linecap="round" stroke-linejoin="round"/>
<path d="M367.453 238.258C372.788 236.177 382.369 232.136 387.411 236.898C389.276 238.66 391.165 241.741 393.534 242.794C395.9 243.846 399.654 243.577 401.925 242.442C403.444 241.682 407.841 238.965 408.25 237.125C408.633 235.404 408.234 234.274 409.183 232.614C409.548 231.975 412.482 232.362 413.164 232.362C417.608 232.362 419.504 235.811 422.563 238.258C423.538 239.039 424.472 240.236 425.411 241.081C426.168 241.762 428.305 242.13 429.367 242.366C430.776 242.679 431.94 243.248 433.449 243.248C435.084 243.248 434.392 241.625 435.49 240.526C437.652 238.364 440.346 236.771 442.974 235.31C446.441 233.384 450.203 234.074 453.633 236.091C455.689 237.301 456.469 240.376 458.85 241.434C461.857 242.77 465.072 242.341 468.501 242.341C470.443 242.341 475.397 243.843 476.287 240.728C476.762 239.066 477.158 237.071 477.925 235.537C478.952 233.484 479.346 233.489 481.755 234.075C484.245 234.681 485.777 235.229 487.904 236.444C489.149 237.156 490.046 238.549 491.281 239.166" stroke="url(#paint22_linear)" stroke-width="8" stroke-linecap="round" stroke-linejoin="round"/>
<path d="M508.063 237.805C510.179 236.202 511.97 234.176 514.766 234.176C516.527 234.176 518.111 233.723 519.856 233.723" stroke="url(#paint23_linear)" stroke-width="8" stroke-linecap="round" stroke-linejoin="round"/>
<path d="M519.856 270.546C514.578 269.576 511.42 267.531 506.904 271.226C504.468 273.219 502.226 276.168 498.992 275.989C494.925 275.763 492.209 272.654 489.24 270.344C486.439 268.165 483.491 267.615 479.941 267.824C478.721 267.896 477.546 269.76 476.54 270.319C474.485 271.46 472.506 272.019 470.643 273.469C469.088 274.678 467.574 276.509 465.88 277.45C463.828 278.59 463.354 276.551 461.798 275.081C459.065 272.5 455.737 271.663 452.5 269.865C448.756 267.785 446.001 265.23 442.294 268.731C440.012 270.887 437.899 272.864 435.944 275.308C434.57 277.025 428.535 275.989 426.419 275.989C424.562 275.989 422.858 276.228 421.203 275.308C420.531 274.935 419.2 274.386 418.809 273.721C418.474 273.152 418.45 271.79 418.028 271.453C416.978 270.613 415.185 269.185 413.719 269.185C412.079 269.185 408.647 268.502 407.369 269.638C405.986 270.867 404.097 271.855 402.606 273.015C401.845 273.607 401.251 274.354 400.565 275.081C399.733 275.962 399.523 275.66 398.524 276.215C395.573 277.855 387.94 277.766 387.411 273.267C387.303 272.349 385.288 270.912 384.463 270.546C382.566 269.703 380.181 270.092 378.113 270.092C376.297 270.092 374.794 268.671 372.796 269.286C370.46 270.004 368.182 270.45 367 272.813" stroke="url(#paint24_linear)" stroke-width="8" stroke-linecap="round" stroke-linejoin="round"/>
<path d="M406 307.544C408.981 307.544 411.736 307.091 414.845 307.091C416.821 307.091 419.236 309.986 420.943 310.946C425.169 313.323 428.465 314.544 433.568 314.348C436.314 314.242 437.751 312.086 437.751 309.585C437.751 307.341 441.982 306.756 443.42 305.957C446.871 304.04 455.894 304.846 455.894 309.812" stroke="url(#paint25_linear)" stroke-width="8" stroke-linecap="round" stroke-linejoin="round"/>
<path d="M474 308.35C476.781 304.791 480.832 304.721 485.113 304.721C487.228 304.721 489.135 304.584 491.135 305.276C493.531 306.105 494.347 308.74 495.999 310.391C497.477 311.87 499.09 313.793 501.442 313.793C503.411 313.793 505.33 311.694 506.658 310.366C508.05 308.974 508.992 307.014 510.513 305.83C511.888 304.761 513.918 303.356 514.822 302" stroke="url(#paint26_linear)" stroke-width="8" stroke-linecap="round" stroke-linejoin="round"/>
<path d="M493.913 382.544L493.911 382.538C492.753 379.461 491.027 377.765 489.181 376.85C487.28 375.909 485.012 375.682 482.658 375.996C480.307 376.309 478.019 377.145 476.229 378.141C475.337 378.637 474.612 379.148 474.084 379.614C473.525 380.109 473.321 380.435 473.28 380.526L470.944 385.716L468.706 380.494C468.71 380.502 468.711 380.506 468.711 380.506C468.706 380.509 468.576 380.297 468.122 379.909C467.645 379.502 466.967 379.032 466.118 378.563C464.416 377.622 462.212 376.787 459.941 376.442C457.663 376.096 455.482 376.266 453.666 377.126C451.915 377.955 450.258 379.537 449.144 382.517L493.913 382.544ZM493.913 382.544C495.009 385.439 494.369 389.48 492.089 394.427C489.856 399.274 486.285 404.478 482.383 409.369C476.468 416.781 469.979 423.242 466.763 426.323M493.913 382.544L466.763 426.323M466.763 426.323C464.363 423.182 459.85 416.883 455.878 409.651C453.225 404.82 450.868 399.67 449.527 394.837C448.172 389.952 447.948 385.722 449.144 382.518L466.763 426.323Z" fill="url(#paint27_linear)" stroke="white" stroke-width="5"/>
<defs>
<linearGradient id="paint0_linear" x1="185.092" y1="189.902" x2="185.092" y2="201.063" gradientUnits="userSpaceOnUse">
<stop stop-color="#E96E6E"/>
<stop offset="1" stop-color="#E9CE6E"/>
</linearGradient>
<linearGradient id="paint1_linear" x1="69.9537" y1="190.409" x2="69.9537" y2="200.788" gradientUnits="userSpaceOnUse">
<stop stop-color="#E96E6E"/>
<stop offset="1" stop-color="#E9CE6E"/>
</linearGradient>
<linearGradient id="paint2_linear" x1="132.083" y1="148.321" x2="132.083" y2="158.583" gradientUnits="userSpaceOnUse">
<stop stop-color="#E96E6E"/>
<stop offset="1" stop-color="#E9CE6E"/>
</linearGradient>
<linearGradient id="paint3_linear" x1="169.106" y1="103.617" x2="169.106" y2="113.488" gradientUnits="userSpaceOnUse">
<stop stop-color="#E96E6E"/>
<stop offset="1" stop-color="#E9CE6E"/>
</linearGradient>
<linearGradient id="paint4_linear" x1="237.679" y1="58.4828" x2="237.679" y2="74.1565" gradientUnits="userSpaceOnUse">
<stop stop-color="#E96E6E"/>
<stop offset="1" stop-color="#E9CE6E"/>
</linearGradient>
<linearGradient id="paint5_linear" x1="90.1287" y1="228.227" x2="92.7192" y2="235.406" gradientUnits="userSpaceOnUse">
<stop stop-color="#E96E6E"/>
<stop offset="1" stop-color="#E9CE6E"/>
</linearGradient>
<linearGradient id="paint6_linear" x1="271.112" y1="146.59" x2="271.112" y2="157.18" gradientUnits="userSpaceOnUse">
<stop stop-color="#E96E6E"/>
<stop offset="1" stop-color="#E9CE6E"/>
</linearGradient>
<linearGradient id="paint7_linear" x1="343.264" y1="102.868" x2="343.264" y2="116.253" gradientUnits="userSpaceOnUse">
<stop stop-color="#E96E6E"/>
<stop offset="1" stop-color="#E9CE6E"/>
</linearGradient>
<linearGradient id="paint8_linear" x1="382.767" y1="61.0301" x2="382.767" y2="71.7311" gradientUnits="userSpaceOnUse">
<stop stop-color="#E96E6E"/>
<stop offset="1" stop-color="#E9CE6E"/>
</linearGradient>
<linearGradient id="paint9_linear" x1="297.231" y1="17" x2="297.231" y2="29.7273" gradientUnits="userSpaceOnUse">
<stop stop-color="#E96E6E"/>
<stop offset="1" stop-color="#E9CE6E"/>
</linearGradient>
<linearGradient id="paint10_linear" x1="194.391" y1="19.1727" x2="194.391" y2="29.4174" gradientUnits="userSpaceOnUse">
<stop stop-color="#E96E6E"/>
<stop offset="1" stop-color="#E9CE6E"/>
</linearGradient>
<linearGradient id="paint11_linear" x1="57.6892" y1="147.831" x2="57.6892" y2="159.943" gradientUnits="userSpaceOnUse">
<stop stop-color="#E96E6E"/>
<stop offset="1" stop-color="#E9CE6E"/>
</linearGradient>
<linearGradient id="paint12_linear" x1="125.947" y1="62.095" x2="125.947" y2="70.4894" gradientUnits="userSpaceOnUse">
<stop stop-color="#E96E6E"/>
<stop offset="1" stop-color="#E9CE6E"/>
</linearGradient>
<linearGradient id="paint13_linear" x1="28.5864" y1="233.839" x2="28.5864" y2="240.554" gradientUnits="userSpaceOnUse">
<stop stop-color="#E96E6E"/>
<stop offset="1" stop-color="#E9CE6E"/>
</linearGradient>
<linearGradient id="paint14_linear" x1="26.5112" y1="276.053" x2="26.5112" y2="283.095" gradientUnits="userSpaceOnUse">
<stop stop-color="#E96E6E"/>
<stop offset="1" stop-color="#E9CE6E"/>
</linearGradient>
<linearGradient id="paint15_linear" x1="344.043" y1="190.164" x2="344.043" y2="200.612" gradientUnits="userSpaceOnUse">
<stop stop-color="#E96E6E"/>
<stop offset="1" stop-color="#E9CE6E"/>
</linearGradient>
<linearGradient id="paint16_linear" x1="433.449" y1="145.845" x2="433.449" y2="157.521" gradientUnits="userSpaceOnUse">
<stop stop-color="#E96E6E"/>
<stop offset="1" stop-color="#E9CE6E"/>
</linearGradient>
<linearGradient id="paint17_linear" x1="455.675" y1="104.88" x2="455.675" y2="113.275" gradientUnits="userSpaceOnUse">
<stop stop-color="#E96E6E"/>
<stop offset="1" stop-color="#E9CE6E"/>
</linearGradient>
<linearGradient id="paint18_linear" x1="474.271" y1="189.415" x2="474.271" y2="198.804" gradientUnits="userSpaceOnUse">
<stop stop-color="#E96E6E"/>
<stop offset="1" stop-color="#E9CE6E"/>
</linearGradient>
<linearGradient id="paint19_linear" x1="169.854" y1="214" x2="169.854" y2="223.587" gradientUnits="userSpaceOnUse">
<stop stop-color="#E96E6E"/>
<stop offset="1" stop-color="#E9CE6E"/>
</linearGradient>
<linearGradient id="paint20_linear" x1="254.521" y1="216.009" x2="253.776" y2="225.567" gradientUnits="userSpaceOnUse">
<stop stop-color="#E96E6E"/>
<stop offset="1" stop-color="#E9CE6E"/>
</linearGradient>
<linearGradient id="paint21_linear" x1="329.568" y1="237.512" x2="326.04" y2="246.427" gradientUnits="userSpaceOnUse">
<stop stop-color="#E96E6E"/>
<stop offset="1" stop-color="#E9CE6E"/>
</linearGradient>
<linearGradient id="paint22_linear" x1="429.367" y1="232.246" x2="429.367" y2="243.455" gradientUnits="userSpaceOnUse">
<stop stop-color="#E96E6E"/>
<stop offset="1" stop-color="#E9CE6E"/>
</linearGradient>
<linearGradient id="paint23_linear" x1="513.96" y1="233.723" x2="513.96" y2="237.805" gradientUnits="userSpaceOnUse">
<stop stop-color="#E96E6E"/>
<stop offset="1" stop-color="#E9CE6E"/>
</linearGradient>
<linearGradient id="paint24_linear" x1="443.428" y1="267" x2="443.428" y2="277.783" gradientUnits="userSpaceOnUse">
<stop stop-color="#E96E6E"/>
<stop offset="1" stop-color="#E9CE6E"/>
</linearGradient>
<linearGradient id="paint25_linear" x1="430.947" y1="305" x2="430.947" y2="314.369" gradientUnits="userSpaceOnUse">
<stop stop-color="#E96E6E"/>
<stop offset="1" stop-color="#E9CE6E"/>
</linearGradient>
<linearGradient id="paint26_linear" x1="494.411" y1="302" x2="494.411" y2="313.793" gradientUnits="userSpaceOnUse">
<stop stop-color="#E96E6E"/>
<stop offset="1" stop-color="#E9CE6E"/>
</linearGradient>
<linearGradient id="paint27_linear" x1="471.405" y1="373.359" x2="471.386" y2="430.002" gradientUnits="userSpaceOnUse">
<stop stop-color="#FF0000"/>
<stop offset="1" stop-color="#FAFF07"/>
</linearGradient>
</defs>
</svg>
